{
	"asset":{
		"generator":"Khronos glTF Blender I/O v3.5.30",
		"version":"2.0"
	},
	"extensionsUsed":[
		"KHR_materials_emissive_strength"
	],
	"scene":0,
	"scenes":[
		{
			"name":"Scene",
			"nodes":[
				0
			]
		}
	],
	"nodes":[
		{
			"mesh":0,
			"name":"NurbsPath",
			"scale":[
				0.12601278722286224,
				0.12601278722286224,
				0.1538880467414856
			],
			"translation":[
				-0.02837991714477539,
				0.03883934020996094,
				-1.747942328453064
			]
		}
	],
	"materials":[
		{
			"doubleSided":true,
			"emissiveFactor":[
				1,
				0.6675304770469666,
				0.27666181325912476
			],
			"extensions":{
				"KHR_materials_emissive_strength":{
					"emissiveStrength":5
				}
			},
			"name":"emmisive white",
			"pbrMetallicRoughness":{
				"baseColorFactor":[
					0.800000011920929,
					0.800000011920929,
					0.800000011920929,
					1
				],
				"metallicFactor":0,
				"roughnessFactor":0.5
			}
		},
		{
			"alphaMode":"BLEND",
			"doubleSided":true,
			"name":"Glass",
			"pbrMetallicRoughness":{}
		}
	],
	"meshes":[
		{
			"name":"NurbsPath.001",
			"primitives":[
				{
					"attributes":{
						"POSITION":0,
						"TEXCOORD_0":1,
						"NORMAL":2
					},
					"indices":3,
					"material":0
				},
				{
					"attributes":{
						"POSITION":4,
						"TEXCOORD_0":5,
						"NORMAL":6
					},
					"indices":7,
					"material":1
				}
			]
		}
	],
	"accessors":[
		{
			"bufferView":0,
			"componentType":5126,
			"count":16692,
			"max":[
				13.159554481506348,
				4.223477840423584,
				0.11850661039352417
			],
			"min":[
				-10.81558609008789,
				-4.642626762390137,
				-0.10149456560611725
			],
			"type":"VEC3"
		},
		{
			"bufferView":1,
			"componentType":5126,
			"count":16692,
			"type":"VEC2"
		},
		{
			"bufferView":2,
			"componentType":5126,
			"count":16692,
			"type":"VEC3"
		},
		{
			"bufferView":3,
			"componentType":5123,
			"count":92304,
			"type":"SCALAR"
		},
		{
			"bufferView":4,
			"componentType":5126,
			"count":1003,
			"max":[
				13.310437202453613,
				4.378979206085205,
				-0.13292209804058075
			],
			"min":[
				-10.951274871826172,
				-4.747826099395752,
				-0.13292250037193298
			],
			"type":"VEC3"
		},
		{
			"bufferView":5,
			"componentType":5126,
			"count":1003,
			"type":"VEC2"
		},
		{
			"bufferView":6,
			"componentType":5126,
			"count":1003,
			"type":"VEC3"
		},
		{
			"bufferView":7,
			"componentType":5123,
			"count":2970,
			"type":"SCALAR"
		}
	],
	"bufferViews":[
		{
			"buffer":0,
			"byteLength":200304,
			"byteOffset":0,
			"target":34962
		},
		{
			"buffer":0,
			"byteLength":133536,
			"byteOffset":200304,
			"target":34962
		},
		{
			"buffer":0,
			"byteLength":200304,
			"byteOffset":333840,
			"target":34962
		},
		{
			"buffer":0,
			"byteLength":184608,
			"byteOffset":534144,
			"target":34963
		},
		{
			"buffer":0,
			"byteLength":12036,
			"byteOffset":718752,
			"target":34962
		},
		{
			"buffer":0,
			"byteLength":8024,
			"byteOffset":730788,
			"target":34962
		},
		{
			"buffer":0,
			"byteLength":12036,
			"byteOffset":738812,
			"target":34962
		},
		{
			"buffer":0,
			"byteLength":5940,
			"byteOffset":750848,
			"target":34963
		}
	],
	"buffers":[
		{
			"byteLength":756788,
			"uri":"data:application/octet-stream;base64,"
		}
	]
}
